<svg width="26" height="30" viewBox="0 0 26 30" fill="none" xmlns="http://www.w3.org/2000/svg">
<path d="M25.9922 25.9617L24.1234 6.56767C24.0845 6.15808 23.7107 5.8491 23.2668 5.8491H19.389C19.3579 2.61557 16.5001 0 12.9961 0C9.49206 0 6.63432 2.61557 6.60318 5.8491H2.72537C2.28152 5.8491 1.90776 6.16527 1.86882 6.56767L0 25.9617C0 25.9832 0 26.0048 0 26.0335C0 28.218 2.17251 30 4.85115 30H21.1488C23.8197 30 26 28.2252 26 26.0335C26 26.0048 26 25.9832 25.9922 25.9617ZM13.0039 1.58084C15.5657 1.58084 17.6526 3.49222 17.6837 5.8491H8.31626C8.34741 3.49222 10.4343 1.58084 13.0039 1.58084ZM21.1488 28.412H4.85115C3.13807 28.412 1.73645 27.3629 1.71309 26.0623L3.50404 7.42994H6.59539V9.98802C6.59539 10.4263 6.97694 10.7784 7.45193 10.7784C7.92693 10.7784 8.30848 10.4263 8.30848 9.98802V7.42994H17.676V9.98802C17.676 10.4263 18.0575 10.7784 18.5325 10.7784C19.0075 10.7784 19.389 10.4263 19.389 9.98802V7.42994H22.4804L24.2713 26.0623C24.2636 27.3629 22.8619 28.412 21.1488 28.412Z" fill="#323232"/>
</svg>
