<svg width="64" height="84" viewBox="0 0 64 84" fill="none" xmlns="http://www.w3.org/2000/svg">
<g clip-path="url(#clip0)">
<path d="M9.21848 61.03V66.7827H6.19067V52.7384H11.5765C13.3645 52.7384 14.2585 53.6941 14.2585 55.6053V57.2311C14.2585 58.3872 13.848 59.1251 13.0269 59.4449C13.7471 59.705 14.1073 60.2975 14.1073 61.2224V66.78H11.0795V61.4771C11.0795 61.1872 10.9417 61.0409 10.6689 61.0409L9.21848 61.03ZM9.21848 54.7978V58.903H10.8202C10.8753 58.9039 10.93 58.8928 10.9804 58.8703C11.0308 58.8479 11.0757 58.8146 11.1119 58.7729C11.1891 58.6909 11.2317 58.5822 11.2307 58.4694V55.2449C11.2317 55.1321 11.1891 55.0234 11.1119 54.9414C11.0758 54.8993 11.031 54.8657 10.9806 54.8428C10.9302 54.8198 10.8755 54.8082 10.8202 54.8086L9.21848 54.7978Z" fill="#364052"/>
<path d="M21.3999 64.2654H24.7518V66.7827H18.3694V52.7384H24.7518V55.2151H21.3999V58.5128H24.5249V60.9H21.3999V64.2654Z" fill="#364052"/>
<path d="M27.8689 55.3235V52.7384H35.4317V55.3235H33.1682V66.7827H30.1404V55.3235H27.8689Z" fill="#364052"/>
<path d="M42.0166 61.03V66.7827H38.9888V52.7384H44.3908C46.1788 52.7384 47.0728 53.6941 47.0728 55.6053V57.2311C47.0728 58.3872 46.6614 59.1251 45.8385 59.4449C46.5587 59.705 46.9189 60.2975 46.9189 61.2224V66.78H43.8776V61.4771C43.8776 61.1872 43.7398 61.0409 43.467 61.0409L42.0166 61.03ZM42.0166 54.7978V58.903H43.6183C43.6734 58.9039 43.7281 58.8928 43.7785 58.8703C43.8289 58.8479 43.8738 58.8146 43.91 58.7729C43.9487 58.7326 43.9791 58.6851 43.9995 58.633C44.0199 58.5809 44.0299 58.5254 44.0288 58.4694V55.2449C44.0299 55.1889 44.0199 55.1333 43.9995 55.0813C43.9791 55.0292 43.9487 54.9817 43.91 54.9414C43.8739 54.8993 43.8291 54.8657 43.7787 54.8428C43.7283 54.8198 43.6736 54.8082 43.6183 54.8086L42.0166 54.7978Z" fill="#364052"/>
<path d="M59.4136 55.3885V64.1353C59.4136 66.0466 58.5187 67.0013 56.7288 66.9995H53.8523C52.0642 66.9995 51.1702 66.0448 51.1702 64.1353V55.3885C51.1702 53.4791 52.0642 52.5235 53.8523 52.5217H56.7288C58.5169 52.5307 59.4118 53.4863 59.4136 55.3885ZM56.3966 64.4822V55.02C56.3978 54.9072 56.3552 54.7983 56.2777 54.7165C56.242 54.674 56.1973 54.64 56.1468 54.6171C56.0964 54.5941 56.0414 54.5827 55.986 54.5837H54.6355C54.5802 54.5829 54.5253 54.5944 54.4749 54.6173C54.4244 54.6403 54.3797 54.6742 54.3438 54.7165C54.2664 54.7983 54.2237 54.9072 54.225 55.02V64.4822C54.224 64.595 54.2666 64.7037 54.3438 64.7857C54.3802 64.8272 54.4251 64.8604 54.4754 64.8828C54.5258 64.9053 54.5804 64.9165 54.6355 64.9157H55.986C56.0412 64.9167 56.0958 64.9056 56.1462 64.8831C56.1966 64.8606 56.2415 64.8274 56.2777 64.7857C56.355 64.7037 56.3976 64.595 56.3966 64.4822Z" fill="#364052"/>
<path d="M12.1517 78.204V75.9685H16.2221V81.1359C16.2221 83.0435 15.3128 83.9982 13.4941 84H10.7202C8.90332 84 7.99399 83.0453 7.99219 81.1359V72.3863C7.99219 70.4787 8.90152 69.524 10.7202 69.5222H13.4941C15.311 69.5222 16.2203 70.4769 16.2221 72.3863V73.7114H13.2942V72.0178C13.2947 71.9051 13.2521 71.7966 13.1754 71.7143C13.1379 71.6728 13.092 71.6397 13.0408 71.6172C12.9895 71.5948 12.9342 71.5836 12.8783 71.5842H11.49C11.4341 71.5836 11.3787 71.5948 11.3275 71.6172C11.2763 71.6397 11.2304 71.6728 11.1929 71.7143C11.1151 71.796 11.0725 71.9049 11.074 72.0178V81.4827C11.073 81.5386 11.0829 81.5942 11.1033 81.6463C11.1237 81.6984 11.1541 81.7459 11.1929 81.7862C11.2304 81.8278 11.2763 81.8608 11.3275 81.8833C11.3787 81.9057 11.4341 81.9169 11.49 81.9163H12.8783C12.9341 81.9194 12.9899 81.9107 13.042 81.8906C13.0942 81.8705 13.1415 81.8395 13.1808 81.7997C13.258 81.7178 13.3006 81.609 13.2996 81.4963V78.2175L12.1517 78.204Z" fill="#364052"/>
<path d="M25.7728 69.5222C27.5915 69.5222 28.5008 70.4769 28.5008 72.3863V83.7832H25.419V79.0738H23.1961V83.7832H20.1169V72.3863C20.1169 70.4787 21.0263 69.524 22.8449 69.5222H25.7728ZM23.1961 76.7299H25.419V72.0178C25.4195 71.9046 25.3759 71.7957 25.2974 71.7143C25.2602 71.6725 25.2143 71.6392 25.163 71.6167C25.1118 71.5943 25.0563 71.5832 25.0003 71.5842H23.6147C23.5588 71.5836 23.5035 71.5948 23.4522 71.6172C23.401 71.6397 23.3551 71.6728 23.3176 71.7143C23.2392 71.7957 23.1955 71.9046 23.1961 72.0178V76.7299Z" fill="#364052"/>
<path d="M36.0474 83.7832H32.9656V72.3863C32.9656 70.4787 33.8758 69.524 35.6963 69.5222H37.3169C38.3973 69.5222 39.1608 69.8699 39.6073 70.5654C40.0305 69.8699 40.793 69.5222 41.8951 69.5222H43.5156C45.3343 69.5222 46.2436 70.4769 46.2436 72.3863V83.7832H43.1645V72.1316C43.1651 72.0184 43.1214 71.9095 43.043 71.8281C43.0055 71.7866 42.9596 71.7535 42.9084 71.731C42.8571 71.7086 42.8018 71.6974 42.7459 71.698H41.5574C41.5015 71.697 41.446 71.7081 41.3947 71.7306C41.3434 71.753 41.2976 71.7863 41.2603 71.8281C41.1819 71.9095 41.1382 72.0184 41.1388 72.1316V83.7832H38.0596V72.1316C38.0591 72.0186 38.0156 71.9101 37.9381 71.8281C37.9006 71.7866 37.8547 71.7535 37.8035 71.731C37.7523 71.7086 37.6969 71.6974 37.641 71.698H36.4525C36.3966 71.697 36.3411 71.7081 36.2899 71.7306C36.2386 71.753 36.1927 71.7863 36.1554 71.8281C36.077 71.9095 36.0334 72.0184 36.0339 72.1316L36.0474 83.7832Z" fill="#364052"/>
<path d="M53.6496 81.2578H57.061V83.7751H50.5786V69.739H57.061V72.2129H53.6496V75.5133H56.8422V77.9005H53.6496V81.2578Z" fill="#364052"/>
<path d="M32 15C32 15 32.6751 6.64129 38 4" stroke="#364052" stroke-width="1.5" stroke-miterlimit="10"/>
<path d="M63.8649 15.3042H0.13501V45.9019H63.8649V15.3042Z" fill="#364052" stroke="#DCDFDF" stroke-miterlimit="10"/>
<path d="M28.6872 23.8099V17.2715H2.09595V43.9347H61.904V23.7286L28.6872 23.8099Z" stroke="#DCDFDF" stroke-miterlimit="10"/>
<path d="M22.5856 28.4191H18.3342C18.1745 28.4191 18.0213 28.3554 17.9083 28.2421C17.7953 28.1288 17.7319 27.9751 17.7319 27.8148V23.5579C17.7319 23.3977 17.6684 23.244 17.5555 23.1306C17.4425 23.0173 17.2893 22.9537 17.1296 22.9537H13.6372C13.4774 22.9537 13.3242 23.0173 13.2113 23.1306C13.0983 23.244 13.0349 23.3977 13.0349 23.5579V27.823C13.0349 27.9832 12.9714 28.1369 12.8584 28.2502C12.7455 28.3636 12.5923 28.4272 12.4325 28.4272H8.18117C8.1022 28.4272 8.02401 28.4429 7.95108 28.4733C7.87815 28.5037 7.81194 28.5482 7.75622 28.6044C7.70051 28.6605 7.65639 28.7271 7.62641 28.8004C7.59644 28.8737 7.58119 28.9522 7.58155 29.0315V32.5351C7.58119 32.6143 7.59644 32.6928 7.62641 32.7661C7.65639 32.8394 7.70051 32.906 7.75622 32.9622C7.81194 33.0183 7.87815 33.0629 7.95108 33.0933C8.02401 33.1237 8.1022 33.1393 8.18117 33.1393H12.4325C12.5115 33.139 12.5898 33.1543 12.6628 33.1844C12.7359 33.2144 12.8023 33.2587 12.8583 33.3146C12.9142 33.3705 12.9587 33.4369 12.989 33.5101C13.0193 33.5832 13.0349 33.6617 13.0349 33.7409V38.0086C13.0349 38.0879 13.0505 38.1663 13.0808 38.2395C13.1111 38.3126 13.1555 38.3791 13.2114 38.435C13.2674 38.4908 13.3338 38.5351 13.4069 38.5652C13.4799 38.5952 13.5582 38.6105 13.6372 38.6102H17.1296C17.2085 38.6105 17.2868 38.5952 17.3599 38.5652C17.4329 38.5351 17.4993 38.4908 17.5553 38.435C17.6113 38.3791 17.6557 38.3126 17.686 38.2395C17.7163 38.1663 17.7319 38.0879 17.7319 38.0086V33.7409C17.7319 33.6617 17.7475 33.5832 17.7778 33.5101C17.8081 33.4369 17.8525 33.3705 17.9085 33.3146C17.9644 33.2587 18.0309 33.2144 18.1039 33.1844C18.177 33.1543 18.2552 33.139 18.3342 33.1393H22.5856C22.7453 33.1393 22.8985 33.0757 23.0115 32.9624C23.1244 32.849 23.1879 32.6953 23.1879 32.5351V29.0315C23.189 28.9514 23.1742 28.872 23.1444 28.7977C23.1146 28.7235 23.0704 28.6559 23.0144 28.5989C22.9583 28.542 22.8916 28.4967 22.8179 28.4658C22.7443 28.435 22.6653 28.4191 22.5856 28.4191Z" fill="#DCDFDF"/>
<path d="M49.528 35.9466C49.528 34.3752 48.2583 33.1014 46.692 33.1014C45.1257 33.1014 43.856 34.3752 43.856 35.9466C43.856 37.5179 45.1257 38.7917 46.692 38.7917C48.2583 38.7917 49.528 37.5179 49.528 35.9466Z" fill="#6AAE9D"/>
<path d="M57.361 35.9466C57.361 34.3752 56.0913 33.1014 54.525 33.1014C52.9587 33.1014 51.689 34.3752 51.689 35.9466C51.689 37.5179 52.9587 38.7917 54.525 38.7917C56.0913 38.7917 57.361 37.5179 57.361 35.9466Z" fill="#E9C247"/>
<path d="M31.4315 35.2691H28.4604C28.162 35.2691 27.9202 35.5118 27.9202 35.8111C27.9202 36.1104 28.162 36.353 28.4604 36.353H31.4315C31.7298 36.353 31.9717 36.1104 31.9717 35.8111C31.9717 35.5118 31.7298 35.2691 31.4315 35.2691Z" fill="#DCDFDF"/>
<path d="M37.3736 35.2691H34.4025C34.1042 35.2691 33.8623 35.5118 33.8623 35.8111C33.8623 36.1104 34.1042 36.353 34.4025 36.353H37.3736C37.6719 36.353 37.9138 36.1104 37.9138 35.8111C37.9138 35.5118 37.6719 35.2691 37.3736 35.2691Z" fill="#DCDFDF"/>
<path d="M61.3935 17.0385H43.5669C43.4923 17.0385 43.4319 17.0991 43.4319 17.1739C43.4319 17.2488 43.4923 17.3094 43.5669 17.3094H61.3935C61.4681 17.3094 61.5285 17.2488 61.5285 17.1739C61.5285 17.0991 61.4681 17.0385 61.3935 17.0385Z" fill="#F2F5F9"/>
<path d="M42.2164 17.0385H41.9463C41.8717 17.0385 41.8113 17.0991 41.8113 17.1739C41.8113 17.2488 41.8717 17.3094 41.9463 17.3094H42.2164C42.291 17.3094 42.3515 17.2488 42.3515 17.1739C42.3515 17.0991 42.291 17.0385 42.2164 17.0385Z" fill="#F2F5F9"/>
</g>
<defs>
<clipPath id="clip0">
<rect width="64" height="84" fill="white"/>
</clipPath>
</defs>
</svg>
