<svg width="30" height="30" viewBox="0 0 30 30" fill="none" xmlns="http://www.w3.org/2000/svg">
<g clip-path="url(#clip0)">
<path d="M21.3 17.1C20.6 17 19.9 16.8 19.2 16.6C18.5 16.3 17.6 16.5 17 17.1L16.3 17.8C14.7 16.8 13.3 15.4 12.3 13.8L13 13.1C13.6 12.5 13.7 11.7 13.5 11C13.2 10.3 13.1 9.60001 13 8.90001C12.9 7.90001 12 7.10001 11 7.10001H8.59999C8.49999 7.10001 8.49999 7.10001 8.39999 7.10001C7.89999 7.10001 7.39999 7.40001 6.99999 7.80001C6.69999 8.20001 6.49999 8.80001 6.59999 9.30001C6.89999 11.8 7.69999 14.2 9.09999 16.2C10.3 18.1 12 19.8 13.9 21C16 22.3 18.4 23.2 20.8 23.5C20.9 23.5 20.9 23.5 21 23.5C21.5 23.5 22.1 23.3 22.4 22.9C22.8 22.5 23 22 23 21.5V19.2C23.1 18.1 22.3 17.2 21.3 17.1ZM22.1 19.1V21.4C22.1 21.7 22 22 21.8 22.2C21.6 22.4 21.3 22.5 21 22.5H20.9C18.6 22.2 16.3 21.5 14.4 20.2C12.6 19.1 11 17.5 9.89999 15.7C8.59999 13.7 7.79999 11.5 7.59999 9.20001C7.59999 8.90001 7.69999 8.60001 7.79999 8.40001C7.99999 8.20001 8.19999 8.10001 8.49999 8.00001H8.59999H11C11.5 8.00001 12 8.40001 12 9.00001C12.1 9.80001 12.3 10.6 12.6 11.3C12.7 11.7 12.7 12.1 12.4 12.4L11.4 13.4C11.2 13.6 11.2 13.8 11.3 14C12.5 16 14.1 17.7 16.2 18.8C16.4 18.9 16.6 18.9 16.8 18.7L17.8 17.7C18.1 17.4 18.5 17.3 18.9 17.5C19.6 17.8 20.4 18 21.2 18.1C21.7 18.1 22.1 18.6 22.1 19.1Z" fill="#323232" stroke="#323232" stroke-width="0.6" stroke-miterlimit="10"/>
<path d="M14.8 0.300003C6.80005 0.300003 0.300049 6.8 0.300049 14.8C0.300049 17.6 1.10005 20.3 2.60005 22.6L0.400049 28.7C0.300049 28.9 0.400049 29.1 0.500049 29.2C0.600049 29.3 0.700049 29.3 0.800049 29.3C0.900049 29.3 0.900049 29.3 1.00005 29.3L7.30005 27.2C9.60005 28.6 12.2 29.3 14.9 29.3C22.9 29.3 29.4 22.8 29.4 14.8C29.4 6.8 22.8 0.300003 14.8 0.300003ZM14.8 28.4C12.2 28.4 9.70005 27.7 7.60005 26.3C7.50005 26.3 7.40005 26.2 7.30005 26.2C7.20005 26.2 7.20005 26.2 7.10005 26.2L1.50005 28.1L3.50005 22.7C3.60005 22.6 3.50005 22.4 3.40005 22.3C1.90005 20.1 1.20005 17.5 1.20005 14.8C1.20005 7.3 7.30005 1.3 14.7 1.3C22.1 1.3 28.2001 7.4 28.2001 14.8C28.2001 22.2 22.3 28.4 14.8 28.4Z" fill="#323232" stroke="#323232" stroke-width="0.6" stroke-miterlimit="10"/>
</g>
<defs>
<clipPath id="clip0">
<rect width="29.6" height="29.6" fill="white"/>
</clipPath>
</defs>
</svg>
