<svg width="191" height="65" viewBox="0 0 191 65" fill="none" xmlns="http://www.w3.org/2000/svg">
<g clip-path="url(#clip0)">
<path d="M4.37158 60.4017L28.2319 60.377C37.9939 60.377 45.9052 52.3216 45.9052 42.396C45.9052 32.4509 37.9939 24.3949 28.2319 24.3949L22.0353 24.4293C21.5469 24.4293 21.1509 24.0203 21.1509 23.517C21.1509 23.0137 21.5469 22.604 22.0353 22.604L45.8523 22.6092L45.8619 14.9778H22.0302C17.4226 14.9778 13.6739 18.8007 13.6739 23.4975C13.6739 28.1989 17.422 32.0068 22.0302 32.0068L28.2561 32.0907C33.8492 32.0907 38.3753 36.6978 38.3753 42.3817C38.3753 48.0695 33.8499 52.687 28.2561 52.687H4.38113L4.37158 60.4017Z" fill="#0060A8"/>
<path d="M4.38092 50.8956H28.2559C32.8781 50.8956 36.6166 47.0877 36.6166 42.3811C36.6166 37.6797 32.8781 33.8763 28.2559 33.8763L22.03 33.8074C16.4464 33.8074 11.9159 29.1951 11.9159 23.4969C11.9159 17.8143 16.4464 13.2013 22.03 13.2013L45.8617 13.1961L45.8521 5.5354H22.035C12.2832 5.5354 4.36182 13.5817 4.36182 23.517C4.36182 33.4524 12.2832 41.5032 22.035 41.5032L28.198 41.513C28.6666 41.513 29.0626 41.9032 29.0626 42.396C29.0626 42.8798 28.6666 43.2693 28.198 43.2693L4.37137 43.2889L4.38092 50.8956ZM64.4039 52.7358C60.2643 52.7358 56.8735 49.3662 56.8735 45.0641V20.7196C56.8735 16.5807 60.2643 13.1766 64.4039 13.1766L89.8725 13.1812V5.5354H64.4039C56.1158 5.5354 49.4022 12.3677 49.4022 20.8035V45.0647C49.4022 53.5012 56.1158 60.3432 64.4039 60.3432L89.7662 60.3536L89.7611 52.7267L64.4039 52.7358Z" fill="#0060A8"/>
<path d="M58.6995 20.8035C58.6995 17.5776 61.2404 14.9629 64.404 14.9629H89.8726V22.619H67.9299C66.172 22.619 66.1479 24.4001 66.1479 24.4001H84.4539V32.0218H58.6906L58.6995 20.8035ZM64.404 50.8813C61.25 50.8813 58.6899 48.2816 58.6899 45.0647V33.8367H84.4533V41.474H66.1472C66.1714 43.2693 67.9292 43.2785 67.9292 43.2785H89.7656L89.7605 50.8709L64.404 50.8813ZM107.72 52.7163C103.595 52.7163 100.224 49.283 100.224 45.0641V20.8029C100.224 16.5801 103.571 13.176 107.701 13.176H132.368V5.5354H107.643C99.3589 5.5354 92.6453 12.3677 92.6453 20.8035V45.0647C92.6453 53.5012 99.4169 60.3432 107.701 60.3432L132.368 60.3536V24.4001H111.169V32.0218H124.877V52.7163H107.72Z" fill="#0060A8"/>
<path d="M101.982 45.064C101.982 48.2964 104.542 50.9254 107.701 50.9254H123.108V33.8268H111.188V41.4739H115.612L115.626 43.2692H111.221C110.26 43.2692 109.473 42.4558 109.473 41.4739L109.434 24.3948C109.434 24.3948 109.428 22.6189 111.202 22.5747H132.376L132.367 14.9576L107.699 14.9628C106.183 14.9628 104.728 15.5781 103.656 16.6734C102.583 17.7688 101.981 19.2544 101.981 20.8034V45.064H101.982ZM155.547 14.849C155.715 14.3612 156.026 13.9386 156.439 13.6396C156.852 13.3405 157.345 13.1799 157.851 13.1799C158.357 13.1799 158.851 13.3405 159.263 13.6396C159.676 13.9386 159.988 14.3612 160.155 14.849L172.129 50.9794H154.595L154.615 42.4798H160.474L157.836 34.4732L149.244 60.347H140.405L155.547 14.849Z" fill="#0060A8"/>
<path d="M174.543 52.7163H154.624V60.3471H184.937L169.172 12.7078C167.791 8.061 163.237 4.64258 157.845 4.64258C152.446 4.64258 147.906 8.04604 146.514 12.6889L130.604 60.3478H138.54L153.987 14.0206C154.303 13.2455 154.837 12.5835 155.522 12.1182C156.206 11.6528 157.01 11.405 157.832 11.4059C158.653 11.4072 159.455 11.6547 160.14 12.1178C160.824 12.581 161.36 13.2392 161.681 14.0109L174.543 52.7163Z" fill="#0060A8"/>
<path d="M179.224 11.5983C179.917 11.5999 180.604 11.4617 181.245 11.1917C181.886 10.9217 182.468 10.5251 182.958 10.0247C183.953 9.00381 184.508 7.65712 184.508 6.21679C184.508 4.78622 183.953 3.44408 182.958 2.42317C181.966 1.41606 180.623 0.852009 179.224 0.854746C176.322 0.854746 173.95 3.25746 173.95 6.21744C173.95 7.65777 174.501 9.00446 175.505 10.0254C175.992 10.5252 176.572 10.9216 177.21 11.1915C177.849 11.4615 178.533 11.5998 179.224 11.5983ZM174.694 6.21614C174.694 4.9878 175.158 3.82383 176.022 2.95053C176.442 2.5218 176.942 2.18213 177.491 1.95103C178.041 1.71993 178.63 1.60195 179.224 1.60385C180.441 1.60385 181.581 2.07789 182.441 2.95053C182.863 3.37837 183.197 3.88719 183.425 4.44767C183.653 5.00815 183.77 5.60919 183.77 6.21614C183.77 8.76646 181.731 10.8382 179.224 10.8382C178.021 10.8382 176.881 10.3596 176.022 9.4863C175.157 8.61365 174.694 7.45424 174.694 6.21614Z" fill="#0060A8"/>
<path d="M177.872 6.67008V9.20544H177.109V3.24646H179.277C180.094 3.25621 180.572 3.25621 181.026 3.60605C181.465 3.93704 181.649 4.43514 181.649 4.98786C181.649 6.37941 180.539 6.56149 180.258 6.62066L181.9 9.20544H180.978L179.379 6.67008H177.872ZM177.872 6.01397H179.422C179.669 6.01397 179.901 6.01397 180.133 5.95479C180.674 5.82149 180.867 5.42678 180.867 4.99306C180.867 4.83504 180.852 4.43579 180.519 4.15942C180.214 3.89802 179.828 3.90777 179.379 3.90777H177.872V6.01397Z" fill="#0060A8"/>
</g>
<defs>
<clipPath id="clip0">
<rect width="191" height="65" fill="white"/>
</clipPath>
</defs>
</svg>
