<svg width="25" height="30" fill="none" xmlns="http://www.w3.org/2000/svg"><path d="M24.992 25.962L23.197 6.568c-.038-.41-.397-.719-.824-.719h-3.729C18.613 2.616 15.866 0 12.496 0 9.127 0 6.38 2.616 6.35 5.85H2.621c-.427 0-.787.315-.824.718L0 25.962v.072C0 28.218 2.089 30 4.665 30h15.67C22.904 30 25 28.225 25 26.034c0-.03 0-.05-.008-.072zM12.505 1.58c2.463 0 4.47 1.911 4.5 4.268H7.996c.03-2.357 2.037-4.268 4.508-4.268zm7.831 26.831H4.665c-1.648 0-2.995-1.05-3.018-2.35L3.37 7.43h2.973v2.558c0 .438.367.79.823.79.457 0 .824-.352.824-.79V7.43h9.007v2.558c0 .438.367.79.824.79.456 0 .823-.352.823-.79V7.43h2.973l1.722 18.632c-.008 1.3-1.355 2.35-3.003 2.35z" fill="#454545"/></svg>