<svg width="181" height="57" fill="none" xmlns="http://www.w3.org/2000/svg"><path d="M.372 56.402l23.86-.025c9.762 0 17.673-8.055 17.673-17.981 0-9.945-7.911-18.001-17.673-18.001l-6.197.034c-.488 0-.884-.409-.884-.912 0-.503.396-.913.884-.913l23.817.005.01-7.631H18.03c-4.607 0-8.356 3.823-8.356 8.52 0 4.7 3.748 8.509 8.356 8.509l6.226.084c5.593 0 10.12 4.607 10.12 10.29 0 5.688-4.526 10.306-10.12 10.306H.381l-.01 7.715z" fill="#0060A8"/><path d="M.38 46.896h23.876c4.622 0 8.36-3.808 8.36-8.515 0-4.701-3.738-8.505-8.36-8.505l-6.226-.069c-5.584 0-10.114-4.612-10.114-10.31 0-5.683 4.53-10.296 10.114-10.296l23.832-.005-.01-7.66H18.035C8.283 1.535.362 9.581.362 19.516s7.921 17.986 17.673 17.986l6.163.01c.469 0 .865.39.865.883a.874.874 0 01-.865.873l-23.827.02.01 7.607zm60.024 1.84c-4.14 0-7.53-3.37-7.53-7.672V16.72c0-4.14 3.39-7.543 7.53-7.543l25.468.004V1.535H60.404c-8.288 0-15.002 6.833-15.002 15.269v24.26c0 8.437 6.714 15.28 15.002 15.28l25.362.01-.005-7.627-25.357.009z" fill="#0060A8"/><path d="M54.7 16.803c0-3.225 2.54-5.84 5.704-5.84h25.469v7.656H63.93c-1.758 0-1.782 1.781-1.782 1.781h18.306v7.622H54.69l.008-11.218zm5.704 30.078c-3.154 0-5.714-2.6-5.714-5.816V29.837h25.763v7.637H62.147c.024 1.795 1.782 1.805 1.782 1.805h21.837l-.006 7.592-25.356.01zm43.316 1.835c-4.125 0-7.496-3.433-7.496-7.652V16.803c0-4.223 3.347-7.627 7.477-7.627h24.667v-7.64h-24.725c-8.284 0-14.998 6.832-14.998 15.268v24.26c0 8.437 6.772 15.28 15.056 15.28l24.667.01V20.4h-21.199v7.622h13.708v20.694H103.72z" fill="#0060A8"/><path d="M97.982 41.064c0 3.232 2.56 5.861 5.719 5.861h15.407V29.827h-11.92v7.647h4.424l.014 1.795h-4.405c-.961 0-1.748-.813-1.748-1.795l-.039-17.08s-.006-1.775 1.768-1.82h21.174l-.009-7.616-24.668.005a5.66 5.66 0 00-4.043 1.71 5.905 5.905 0 00-1.675 4.13v24.261h.001zm53.565-30.215c.168-.488.479-.91.892-1.21a2.404 2.404 0 012.824 0c.413.3.725.722.892 1.21l11.974 36.13h-17.534l.02-8.5h5.859l-2.638-8.006-8.592 25.874h-8.839l15.142-45.498z" fill="#0060A8"/><path d="M170.543 48.716h-19.919v7.631h30.313l-15.765-47.64c-1.381-4.646-5.935-8.064-11.327-8.064-5.399 0-9.939 3.403-11.331 8.046l-15.91 47.659h7.936l15.447-46.327a4.226 4.226 0 011.535-1.903 4.097 4.097 0 014.618 0 4.259 4.259 0 011.541 1.893l12.862 38.705z" fill="#0060A8"/></svg>