<svg width="232" height="58" fill="none" xmlns="http://www.w3.org/2000/svg"><path fill-rule="evenodd" clip-rule="evenodd" d="M30.344 57.152C12.154 57.147 0 44.258 0 28.628S12.185-.04 30.318 0h171.364C219.815-.04 232 12.997 232 28.628c0 15.63-12.156 28.52-30.348 28.524H30.344z" fill="#CC2131"/><path fill-rule="evenodd" clip-rule="evenodd" d="M30.401 7.032C16.002 7.057 7.16 16.684 7.16 28.59c0 11.904 8.785 21.607 23.242 21.553h171.194c14.457.054 23.246-9.649 23.246-21.553 0-11.906-8.843-21.531-23.246-21.558H30.401z" fill="#fff"/><path fill-rule="evenodd" clip-rule="evenodd" d="M23.017 15.075h8.378l11.6 18.76-.006-18.76h8.315v26.908h-8.303L31.34 23.222v18.76h-8.328l.004-26.907zm73.508 2.77h8.098v3.62h4.381v2.658h-4.381l.005 17.86h-8.103l.004-17.86h-4.397v-2.655h4.4l-.007-3.622zm-40.588 6.246h8.091v17.892h-8.091V24.09zm-.017-9.02h8.108v5.5H55.92v-5.5zm145.049 17.822s-.005 2.7-.005 3.788c0 2.851-1.683 4.03-3.309 4.03-1.618 0-3.313-1.179-3.313-4.03 0-1.087.005-3.855.005-3.855s.007-2.645.007-3.733c0-2.84 1.688-4.008 3.301-4.008 1.614 0 3.309 1.168 3.309 4.008 0 1.088 0 3.09.005 3.812v-.012zm-3.251-10.025c-6.527 0-11.819 4.5-11.819 10.05 0 5.546 5.293 10.044 11.819 10.044 6.536 0 11.827-4.498 11.827-10.044 0-5.55-5.291-10.05-11.827-10.05zm-22.441-7.792h7.985v26.901h-7.997l-.005-1.029c-3.093 1.942-6.593 1.937-9.316.671-.729-.34-5.534-2.647-5.534-8.869 0-4.727 4.459-9.882 10.286-9.371 1.921.171 3.284.87 4.58 1.596l.001-9.9zm.058 17.87V29.75c0-2.768-1.908-3.472-3.168-3.472-1.291 0-3.176.704-3.176 3.472 0 .913.005 3.19.005 3.19s-.005 2.226-.005 3.18c0 2.765 1.885 3.486 3.176 3.486 1.26 0 3.168-.721 3.168-3.487v-3.172zm-92.367-9.682c3.023-.083 9.164 1.897 9.12 8.983-.01 1.255-.003 9.732-.003 9.732h-8.038v-11.75c0-1.561-1.492-3.296-3.694-3.296-2.206 0-3.843 1.735-3.843 3.296l.008 11.75h-8.034l-.006-17.89 8.039-.007s-.009 1.441 0 1.88a9.761 9.761 0 016.45-2.698zm65.757 0c3.018-.083 9.158 1.897 9.119 8.983-.012 1.255-.007 9.732-.007 9.732h-8.038v-11.75c0-1.561-1.49-3.296-3.695-3.296-2.204 0-3.846 1.735-3.846 3.296l.012 11.75h-8.032l.005-17.89 8.027-.007s-.012 1.441 0 1.88a9.76 9.76 0 016.455-2.698zm-32.182 7.062c-.015-1.565.017-2.612.53-3.512.638-1.101 1.8-1.626 2.851-1.63h-.005c1.059.004 2.214.529 2.846 1.63.514.899.543 1.947.531 3.512h-6.753zm6.718 5.397s.008.079.008 1.087c0 3.273-2.153 4.002-3.345 4.002-1.196 0-3.388-.73-3.388-4.002 0-.983.013-3.695.013-3.695s15.236.005 15.236 0c0-5.55-5.354-10.148-11.935-10.148-6.577 0-11.913 4.5-11.913 10.044 0 5.551 5.336 10.05 11.913 10.05 5.459 0 10.068-3.117 11.48-7.346l-8.069.008zm86.847-14.245h-.933v-6.127h2.338c1.443 0 2.163.534 2.163 1.74 0 1.096-.689 1.573-1.591 1.689l1.741 2.698h-1.037l-1.618-2.658h-1.063v2.658zm1.109-3.445c.787 0 1.484-.055 1.484-.997 0-.758-.688-.9-1.329-.9h-1.265v1.897h1.11z" fill="#CC2131"/><path fill-rule="evenodd" clip-rule="evenodd" d="M205.832 18.398c0-3.048 2.475-5.297 5.397-5.297 2.897 0 5.365 2.25 5.365 5.297 0 3.079-2.468 5.326-5.365 5.326-2.922 0-5.397-2.246-5.397-5.326zm5.397 4.44c2.405 0 4.297-1.882 4.297-4.44 0-2.513-1.891-4.412-4.297-4.412-2.429 0-4.325 1.9-4.325 4.412 0 2.56 1.896 4.44 4.325 4.44z" fill="#CC2131"/></svg>