<svg width="30" height="30" fill="none" xmlns="http://www.w3.org/2000/svg"><path d="M30 15c0-8.27-6.729-15-15-15A14.93 14.93 0 004.617 4.175a.889.889 0 001.23 1.282A13.16 13.16 0 0115 1.777c7.29 0 13.222 5.932 13.222 13.223a13.18 13.18 0 01-3.474 8.931A13.258 13.258 0 0115 28.222a13.26 13.26 0 01-9.439-3.965l.047-.189.039-.15c.02-.076.044-.151.067-.226.013-.044.025-.09.04-.134a8.4 8.4 0 01.088-.255l.034-.096a8.53 8.53 0 01.287-.682l.05-.098c.037-.077.075-.154.115-.23.02-.04.043-.079.065-.119l.112-.2c.025-.043.051-.084.077-.126.037-.062.074-.124.113-.185l.086-.127c.038-.058.077-.117.117-.174.03-.043.062-.085.093-.127.04-.055.08-.11.122-.164.032-.043.066-.084.1-.126.042-.052.083-.105.126-.156l.106-.122.132-.15.112-.118a8.99 8.99 0 01.137-.142c.038-.039.078-.077.117-.115a8.382 8.382 0 012.045-1.468 8.44 8.44 0 01.504-.237l.155-.067.182-.071.157-.06.187-.064.16-.053c.063-.02.127-.038.191-.056.054-.016.107-.032.161-.046l.197-.05.161-.038c.067-.015.136-.027.204-.04.053-.011.106-.023.16-.032l.21-.033c.053-.008.105-.017.158-.024.074-.01.15-.017.224-.025.05-.005.1-.012.149-.016.083-.007.167-.012.251-.017l.126-.008a8.01 8.01 0 01.381-.009h2.188a8.54 8.54 0 016.614 3.125.889.889 0 001.373-1.13 10.32 10.32 0 00-5.32-3.424 5.665 5.665 0 001.918-4.25A5.686 5.686 0 0015 6.274a5.686 5.686 0 00-5.68 5.68c0 1.69.744 3.208 1.919 4.249l-.088.023c-.122.034-.243.07-.363.108l-.044.013a10.6 10.6 0 00-.4.137c-.042.015-.082.032-.123.048-.091.034-.182.07-.271.106-.05.02-.099.042-.148.064a10.504 10.504 0 00-.77.37c-.076.04-.15.082-.225.124l-.143.082a10.17 10.17 0 00-.232.141l-.125.078c-.096.062-.19.125-.283.19l-.064.043c-.114.08-.226.162-.336.247l-.095.075c-.078.06-.155.122-.231.185l-.12.102a9.892 9.892 0 00-.197.172 10.278 10.278 0 00-.603.59c-.038.04-.077.08-.114.122-.06.065-.119.132-.177.2l-.1.115a9.502 9.502 0 00-.202.248l-.061.077c-.086.11-.17.223-.25.336-.022.03-.042.062-.063.092-.06.085-.117.17-.174.256l-.083.133c-.048.075-.094.15-.14.226l-.085.148a10.458 10.458 0 00-.505 1.006l-.064.147a8.33 8.33 0 00-.115.29c-.014.036-.03.072-.043.11l-.006.015A13.183 13.183 0 011.778 15 .889.889 0 100 15c0 3.762 1.4 7.36 3.941 10.133A15.04 15.04 0 0015 30a15.04 15.04 0 0011.059-4.868A14.958 14.958 0 0030 15zM15 8.052a3.906 3.906 0 013.901 3.901 3.906 3.906 0 01-3.9 3.902 3.906 3.906 0 01-3.902-3.902A3.906 3.906 0 0115 8.052z" fill="#454545"/></svg>